<svg version="1.1" viewBox="0.0 0.0 256.0 256.0" fill="none" stroke="none" stroke-linecap="square" stroke-miterlimit="10" xmlns:xlink="http://www.w3.org/1999/xlink" xmlns="http://www.w3.org/2000/svg"><clipPath id="p.0"><path d="m0 0l256.0 0l0 256.0l-256.0 0l0 -256.0z" clip-rule="nonzero"/></clipPath><g clip-path="url(#p.0)"><path fill="#000000" fill-opacity="0.0" d="m0 0l256.0 0l0 256.0l-256.0 0z" fill-rule="evenodd"/><path fill="#ed9531" d="m91.81211 79.75852l0 57.890007l-20.265 38.593323l-8.684998 0l24.125 -48.24167l-43.425 0l0 -48.24166zm120.62501 0l0 57.890007l-20.265 38.593323l-8.685013 0l24.125 -48.24167l-43.424988 0l0 -48.24166zm-193.0 -24.12083l0 96.48332l27.984999 0l-24.124998 48.24167l63.690002 0l28.949997 -56.925156l0 -87.799835zm120.62501 0l0 96.48332l27.985 0l-24.125 48.24167l63.689987 0l28.950012 -56.925156l0 -87.799835z" fill-rule="evenodd"/></g></svg>